<svg width="199" height="25" viewBox="0 0 199 25" fill="none" xmlns="http://www.w3.org/2000/svg">
<rect x="21" y="9" width="4" height="3" fill="#01B3EF" fill-opacity="0.933333"/>
<rect x="119" y="8" width="5" height="5" fill="#27AC1F"/>
<rect x="153" y="8" width="5" height="4" fill="#E14117"/>
<path d="M14.52 18H10L6.34 12.68C6.27333 12.5867 6.22 12.4467 6.18 12.26C6.14 12.0733 6.11333 11.8267 6.1 11.52H6V18H1.2V3H5.72L9.38 8.32C9.44667 8.41333 9.5 8.55333 9.54 8.74C9.58 8.92667 9.60667 9.17333 9.62 9.48H9.72V3H14.52V18ZM21.6027 13.92V14.76C21.8427 14.7867 22.0827 14.8067 22.3227 14.82C22.5627 14.8333 22.8027 14.84 23.0427 14.84C24.536 14.84 26.0427 14.6 27.5627 14.12L28.1227 17.64C26.3227 18.12 24.5493 18.36 22.8027 18.36C20.5627 18.36 18.9427 17.84 17.9427 16.8C16.9427 15.7467 16.4427 14.1467 16.4427 12C16.4427 9.85333 16.9427 8.26 17.9427 7.22C18.956 6.16667 20.576 5.64 22.8027 5.64C23.9227 5.64 24.856 5.71333 25.6027 5.86C26.3493 5.99333 26.9493 6.22667 27.4027 6.56C27.8693 6.88 28.196 7.32 28.3827 7.88C28.5827 8.42667 28.6827 9.12 28.6827 9.96C28.6827 10.6533 28.5627 11.2533 28.3227 11.76C28.096 12.2533 27.7093 12.66 27.1627 12.98C26.616 13.3 25.8893 13.54 24.9827 13.7C24.076 13.8467 22.9493 13.92 21.6027 13.92ZM21.6027 10.16V11.14H22.5827C23.1693 11.14 23.5893 11.08 23.8427 10.96C24.1093 10.84 24.2427 10.56 24.2427 10.12V9.14H23.2627C22.676 9.14 22.2493 9.2 21.9827 9.32C21.7293 9.44 21.6027 9.72 21.6027 10.16ZM29.3973 6H34.3973L35.7373 8.98H35.8773L37.1173 6H42.1173L39.1173 12.14L42.2373 18H37.2373L35.7573 14.76H35.6373L34.2773 18H29.2773L32.3973 11.8L29.3973 6ZM43.9261 9.1H42.7261V6H43.9261V4.08L48.7261 2.88V6H50.3861V9.1H48.7261V14.56C48.9261 14.6 49.1461 14.64 49.3861 14.68C49.6261 14.7067 49.8794 14.7267 50.1461 14.74L49.9261 18.26C47.7394 18.26 46.3128 18.14 45.6461 17.9C45.0861 17.7 44.6594 17.4467 44.3661 17.14C44.0728 16.82 43.9261 16.3533 43.9261 15.74V9.1ZM67.0527 8.86V12.44H62.9727V18H58.1727V3H68.0127L67.4127 6.84H62.9727V8.86H67.0527ZM69.2217 6H74.0217V14.86H74.7617C75.3484 14.86 75.7684 14.8 76.0217 14.68C76.2884 14.56 76.4217 14.28 76.4217 13.84V6H81.2217V18H78.8217L77.4217 16.64C76.4617 17.7867 75.0951 18.36 73.3217 18.36C71.8951 18.36 70.8551 18.06 70.2017 17.46C69.5484 16.8467 69.2217 15.8267 69.2217 14.4V6ZM84.1019 9.1H82.9019V6H84.1019V4.08L88.9019 2.88V6H90.5619V9.1H88.9019V14.56C89.1019 14.6 89.3219 14.64 89.5619 14.68C89.8019 14.7067 90.0552 14.7267 90.3219 14.74L90.1019 18.26C87.9152 18.26 86.4885 18.14 85.8219 17.9C85.2619 17.7 84.8352 17.4467 84.5419 17.14C84.2485 16.82 84.1019 16.3533 84.1019 15.74V9.1ZM92.1123 6H96.9123V14.86H97.6523C98.239 14.86 98.659 14.8 98.9123 14.68C99.179 14.56 99.3123 14.28 99.3123 13.84V6H104.112V18H101.712L100.312 16.64C99.3523 17.7867 97.9857 18.36 96.2123 18.36C94.7857 18.36 93.7457 18.06 93.0923 17.46C92.439 16.8467 92.1123 15.8267 92.1123 14.4V6ZM106.513 18V6H108.913L110.233 7.34C111.193 6.46 112.379 5.89333 113.793 5.64L114.073 10.18C113.886 10.18 113.659 10.2067 113.393 10.26C113.126 10.3133 112.853 10.38 112.573 10.46C112.306 10.54 112.059 10.64 111.833 10.76C111.606 10.8667 111.433 10.9933 111.313 11.14V18H106.513ZM120.196 13.92V14.76C120.436 14.7867 120.676 14.8067 120.916 14.82C121.156 14.8333 121.396 14.84 121.636 14.84C123.13 14.84 124.636 14.6 126.156 14.12L126.716 17.64C124.916 18.12 123.143 18.36 121.396 18.36C119.156 18.36 117.536 17.84 116.536 16.8C115.536 15.7467 115.036 14.1467 115.036 12C115.036 9.85333 115.536 8.26 116.536 7.22C117.55 6.16667 119.17 5.64 121.396 5.64C122.516 5.64 123.45 5.71333 124.196 5.86C124.943 5.99333 125.543 6.22667 125.996 6.56C126.463 6.88 126.79 7.32 126.976 7.88C127.176 8.42667 127.276 9.12 127.276 9.96C127.276 10.6533 127.156 11.2533 126.916 11.76C126.69 12.2533 126.303 12.66 125.756 12.98C125.21 13.3 124.483 13.54 123.576 13.7C122.67 13.8467 121.543 13.92 120.196 13.92ZM120.196 10.16V11.14H121.176C121.763 11.14 122.183 11.08 122.436 10.96C122.703 10.84 122.836 10.56 122.836 10.12V9.14H121.856C121.27 9.14 120.843 9.2 120.576 9.32C120.323 9.44 120.196 9.72 120.196 10.16ZM142.747 13.58V12.94H141.527V9.26H147.307V17.28C145.414 18 143.447 18.36 141.407 18.36C140.007 18.36 138.847 18.1933 137.927 17.86C137.021 17.5267 136.301 17.0333 135.767 16.38C135.234 15.7133 134.861 14.8933 134.647 13.92C134.447 12.9333 134.347 11.7867 134.347 10.48C134.347 9.09333 134.474 7.90667 134.727 6.92C134.981 5.92 135.401 5.10667 135.987 4.48C136.574 3.84 137.354 3.37333 138.327 3.08C139.301 2.78667 140.507 2.64 141.947 2.64C142.267 2.64 142.641 2.66 143.067 2.7C143.507 2.72667 143.947 2.77333 144.387 2.84C144.827 2.89333 145.241 2.96 145.627 3.04C146.027 3.10667 146.347 3.18 146.587 3.26L145.867 6.94C145.214 6.83333 144.594 6.75333 144.007 6.7C143.421 6.63333 142.874 6.6 142.367 6.6C141.314 6.6 140.574 6.68 140.147 6.84C139.721 7 139.507 7.32 139.507 7.8V14.6H141.087C141.674 14.6 142.094 14.54 142.347 14.42C142.614 14.2867 142.747 14.0067 142.747 13.58ZM154.142 13.92V14.76C154.382 14.7867 154.622 14.8067 154.862 14.82C155.102 14.8333 155.342 14.84 155.582 14.84C157.075 14.84 158.582 14.6 160.102 14.12L160.662 17.64C158.862 18.12 157.088 18.36 155.342 18.36C153.102 18.36 151.482 17.84 150.482 16.8C149.482 15.7467 148.982 14.1467 148.982 12C148.982 9.85333 149.482 8.26 150.482 7.22C151.495 6.16667 153.115 5.64 155.342 5.64C156.462 5.64 157.395 5.71333 158.142 5.86C158.888 5.99333 159.488 6.22667 159.942 6.56C160.408 6.88 160.735 7.32 160.922 7.88C161.122 8.42667 161.222 9.12 161.222 9.96C161.222 10.6533 161.102 11.2533 160.862 11.76C160.635 12.2533 160.248 12.66 159.702 12.98C159.155 13.3 158.428 13.54 157.522 13.7C156.615 13.8467 155.488 13.92 154.142 13.92ZM154.142 10.16V11.14H155.122C155.708 11.14 156.128 11.08 156.382 10.96C156.648 10.84 156.782 10.56 156.782 10.12V9.14H155.802C155.215 9.14 154.788 9.2 154.522 9.32C154.268 9.44 154.142 9.72 154.142 10.16ZM163.016 6H165.416L166.616 7.2C168.096 6.16 169.696 5.64 171.416 5.64C172.55 5.64 173.43 5.88667 174.056 6.38C174.696 6.86 175.016 7.53333 175.016 8.4V18H170.216V9.6H169.476C168.93 9.6 168.516 9.66 168.236 9.78C167.956 9.88667 167.816 10.1333 167.816 10.52V18H163.016V6ZM176.694 18V15.6L181.394 9.74L181.334 9.6H177.534L177.174 6H188.074V8.4L183.434 14.26L183.514 14.4H188.214V18H176.694Z" fill="black"/>
</svg>
