<svg width="199" height="25" viewBox="0 0 199 25" fill="none" xmlns="http://www.w3.org/2000/svg">
<rect x="21" y="9" width="4" height="3" fill="#4E8DFF" fill-opacity="0.933333"/>
<rect x="119" y="8" width="5" height="5" fill="#FFC84E"/>
<rect x="153" y="8" width="5" height="4" fill="#FF4E4A"/>
<path d="M14.52 18H10L6.34 12.68C6.27333 12.5867 6.22 12.4467 6.18 12.26C6.14 12.0733 6.11333 11.8267 6.1 11.52H6V18H1.2V3H5.72L9.38 8.32C9.44667 8.41333 9.5 8.55333 9.54 8.74C9.58 8.92667 9.60667 9.17333 9.62 9.48H9.72V3H14.52V18ZM21.6027 13.92V14.76C21.8427 14.7867 22.0827 14.8067 22.3227 14.82C22.5627 14.8333 22.8027 14.84 23.0427 14.84C24.536 14.84 26.0427 14.6 27.5627 14.12L28.1227 17.64C26.3227 18.12 24.5493 18.36 22.8027 18.36C20.5627 18.36 18.9427 17.84 17.9427 16.8C16.9427 15.7467 16.4427 14.1467 16.4427 12C16.4427 9.85333 16.9427 8.26 17.9427 7.22C18.956 6.16667 20.576 5.64 22.8027 5.64C23.9227 5.64 24.856 5.71333 25.6027 5.86C26.3493 5.99333 26.9493 6.22667 27.4027 6.56C27.8693 6.88 28.196 7.32 28.3827 7.88C28.5827 8.42667 28.6827 9.12 28.6827 9.96C28.6827 10.6533 28.5627 11.2533 28.3227 11.76C28.096 12.2533 27.7093 12.66 27.1627 12.98C26.616 13.3 25.8893 13.54 24.9827 13.7C24.076 13.8467 22.9493 13.92 21.6027 13.92ZM21.6027 10.16V11.14H22.5827C23.1693 11.14 23.5893 11.08 23.8427 10.96C24.1093 10.84 24.2427 10.56 24.2427 10.12V9.14H23.2627C22.676 9.14 22.2493 9.2 21.9827 9.32C21.7293 9.44 21.6027 9.72 21.6027 10.16ZM29.3973 6H34.3973L35.7373 8.98H35.8773L37.1173 6H42.1173L39.1173 12.14L42.2373 18H37.2373L35.7573 14.76H35.6373L34.2773 18H29.2773L32.3973 11.8L29.3973 6ZM43.9261 9.1H42.7261V6H43.9261V4.08L48.7261 2.88V6H50.3861V9.1H48.7261V14.56C48.9261 14.6 49.1461 14.64 49.3861 14.68C49.6261 14.7067 49.8794 14.7267 50.1461 14.74L49.9261 18.26C47.7394 18.26 46.3128 18.14 45.6461 17.9C45.0861 17.7 44.6594 17.4467 44.3661 17.14C44.0728 16.82 43.9261 16.3533 43.9261 15.74V9.1Z" fill="#4E8DFF" fill-opacity="0.933333"/>
<path d="M67.08 8.86V12.44H63V18H58.2V3H68.04L67.44 6.84H63V8.86H67.08ZM69.2491 6H74.0491V14.86H74.7891C75.3757 14.86 75.7957 14.8 76.0491 14.68C76.3157 14.56 76.4491 14.28 76.4491 13.84V6H81.2491V18H78.8491L77.4491 16.64C76.4891 17.7867 75.1224 18.36 73.3491 18.36C71.9224 18.36 70.8824 18.06 70.2291 17.46C69.5757 16.8467 69.2491 15.8267 69.2491 14.4V6ZM84.1292 9.1H82.9292V6H84.1292V4.08L88.9292 2.88V6H90.5892V9.1H88.9292V14.56C89.1292 14.6 89.3492 14.64 89.5892 14.68C89.8292 14.7067 90.0826 14.7267 90.3492 14.74L90.1292 18.26C87.9426 18.26 86.5159 18.14 85.8492 17.9C85.2892 17.7 84.8626 17.4467 84.5692 17.14C84.2759 16.82 84.1292 16.3533 84.1292 15.74V9.1ZM92.1397 6H96.9397V14.86H97.6797C98.2664 14.86 98.6864 14.8 98.9397 14.68C99.2064 14.56 99.3397 14.28 99.3397 13.84V6H104.14V18H101.74L100.34 16.64C99.3797 17.7867 98.013 18.36 96.2397 18.36C94.813 18.36 93.773 18.06 93.1197 17.46C92.4664 16.8467 92.1397 15.8267 92.1397 14.4V6ZM106.54 18V6H108.94L110.26 7.34C111.22 6.46 112.407 5.89333 113.82 5.64L114.1 10.18C113.913 10.18 113.687 10.2067 113.42 10.26C113.153 10.3133 112.88 10.38 112.6 10.46C112.333 10.54 112.087 10.64 111.86 10.76C111.633 10.8667 111.46 10.9933 111.34 11.14V18H106.54ZM120.224 13.92V14.76C120.464 14.7867 120.704 14.8067 120.944 14.82C121.184 14.8333 121.424 14.84 121.664 14.84C123.157 14.84 124.664 14.6 126.184 14.12L126.744 17.64C124.944 18.12 123.17 18.36 121.424 18.36C119.184 18.36 117.564 17.84 116.564 16.8C115.564 15.7467 115.064 14.1467 115.064 12C115.064 9.85333 115.564 8.26 116.564 7.22C117.577 6.16667 119.197 5.64 121.424 5.64C122.544 5.64 123.477 5.71333 124.224 5.86C124.97 5.99333 125.57 6.22667 126.024 6.56C126.49 6.88 126.817 7.32 127.004 7.88C127.204 8.42667 127.304 9.12 127.304 9.96C127.304 10.6533 127.184 11.2533 126.944 11.76C126.717 12.2533 126.33 12.66 125.784 12.98C125.237 13.3 124.51 13.54 123.604 13.7C122.697 13.8467 121.57 13.92 120.224 13.92ZM120.224 10.16V11.14H121.204C121.79 11.14 122.21 11.08 122.464 10.96C122.73 10.84 122.864 10.56 122.864 10.12V9.14H121.884C121.297 9.14 120.87 9.2 120.604 9.32C120.35 9.44 120.224 9.72 120.224 10.16Z" fill="#FFC84E"/>
<path d="M142.88 13.58V12.94H141.66V9.26H147.44V17.28C145.547 18 143.58 18.36 141.54 18.36C140.14 18.36 138.98 18.1933 138.06 17.86C137.153 17.5267 136.433 17.0333 135.9 16.38C135.367 15.7133 134.993 14.8933 134.78 13.92C134.58 12.9333 134.48 11.7867 134.48 10.48C134.48 9.09333 134.607 7.90667 134.86 6.92C135.113 5.92 135.533 5.10667 136.12 4.48C136.707 3.84 137.487 3.37333 138.46 3.08C139.433 2.78667 140.64 2.64 142.08 2.64C142.4 2.64 142.773 2.66 143.2 2.7C143.64 2.72667 144.08 2.77333 144.52 2.84C144.96 2.89333 145.373 2.96 145.76 3.04C146.16 3.10667 146.48 3.18 146.72 3.26L146 6.94C145.347 6.83333 144.727 6.75333 144.14 6.7C143.553 6.63333 143.007 6.6 142.5 6.6C141.447 6.6 140.707 6.68 140.28 6.84C139.853 7 139.64 7.32 139.64 7.8V14.6H141.22C141.807 14.6 142.227 14.54 142.48 14.42C142.747 14.2867 142.88 14.0067 142.88 13.58ZM154.275 13.92V14.76C154.515 14.7867 154.755 14.8067 154.995 14.82C155.235 14.8333 155.475 14.84 155.715 14.84C157.208 14.84 158.715 14.6 160.235 14.12L160.795 17.64C158.995 18.12 157.221 18.36 155.475 18.36C153.235 18.36 151.615 17.84 150.615 16.8C149.615 15.7467 149.115 14.1467 149.115 12C149.115 9.85333 149.615 8.26 150.615 7.22C151.628 6.16667 153.248 5.64 155.475 5.64C156.595 5.64 157.528 5.71333 158.275 5.86C159.021 5.99333 159.621 6.22667 160.075 6.56C160.541 6.88 160.868 7.32 161.055 7.88C161.255 8.42667 161.355 9.12 161.355 9.96C161.355 10.6533 161.235 11.2533 160.995 11.76C160.768 12.2533 160.381 12.66 159.835 12.98C159.288 13.3 158.561 13.54 157.655 13.7C156.748 13.8467 155.621 13.92 154.275 13.92ZM154.275 10.16V11.14H155.255C155.841 11.14 156.261 11.08 156.515 10.96C156.781 10.84 156.915 10.56 156.915 10.12V9.14H155.935C155.348 9.14 154.921 9.2 154.655 9.32C154.401 9.44 154.275 9.72 154.275 10.16ZM163.149 6H165.549L166.749 7.2C168.229 6.16 169.829 5.64 171.549 5.64C172.683 5.64 173.563 5.88667 174.189 6.38C174.829 6.86 175.149 7.53333 175.149 8.4V18H170.349V9.6H169.609C169.063 9.6 168.649 9.66 168.369 9.78C168.089 9.88667 167.949 10.1333 167.949 10.52V18H163.149V6ZM176.827 18V15.6L181.527 9.74L181.467 9.6H177.667L177.307 6H188.207V8.4L183.567 14.26L183.647 14.4H188.347V18H176.827Z" fill="#FF4E4A"/>
</svg>
