<svg width="615" height="58" viewBox="0 0 615 58" fill="none" xmlns="http://www.w3.org/2000/svg">
<path d="M30.96 54.96C30.12 54.96 29.34 54.76 28.62 54.36C27.9 53.96 27.32 53.26 26.88 52.26C26.48 51.26 26.36 49.86 26.52 48.06C25.12 43.34 23.84 38.64 22.68 33.96C21.56 29.28 20.5 24.46 19.5 19.5C18.06 22.78 16.76 26.14 15.6 29.58C14.44 32.98 13.4 36.2 12.48 39.24C11.56 42.24 10.72 44.76 9.96 46.8C9.36 48.6 8.76 49.94 8.16 50.82C7.56 51.66 6.96 52.2 6.36 52.44C5.8 52.72 5.24 52.86 4.68 52.86C3.32 52.86 2.28 52.54 1.56 51.9C0.84 51.26 0.48 50.1 0.48 48.42C0.48 47.54 0.72 46.2 1.2 44.4C1.68 42.56 2.32 40.46 3.12 38.1C3.96 35.7 4.92 33.2 6 30.6C7.08 27.96 8.22 25.4 9.42 22.92C10.62 20.44 11.82 18.2 13.02 16.2C14.22 14.16 15.38 12.54 16.5 11.34C17.62 10.14 18.62 9.54 19.5 9.54C20.26 9.54 20.96 9.62 21.6 9.78C22.24 9.9 22.86 10.26 23.46 10.86C24.06 11.42 24.68 12.36 25.32 13.68C25.84 14.68 26.36 16.12 26.88 18C27.4 19.84 27.9 21.96 28.38 24.36C28.86 26.72 29.34 29.2 29.82 31.8C30.34 34.4 30.86 36.94 31.38 39.42C32.9 32.5 34.12 26.42 35.04 21.18C36 15.9 36.7 11.76 37.14 8.76C37.58 5.76 37.82 4.18 37.86 4.02C38.14 2.86 38.44 2.06 38.76 1.62C39.08 1.14 39.44 0.859998 39.84 0.779999C40.24 0.659998 40.7 0.599998 41.22 0.599998C41.26 0.599998 41.28 0.599998 41.28 0.599998C42.32 0.599998 43.34 1.02 44.34 1.86C45.38 2.7 45.9 3.84 45.9 5.28C45.9 5.76 45.8 6.84 45.6 8.52C45.4 10.16 45.1 12.24 44.7 14.76C44.34 17.24 43.86 20 43.26 23.04C42.66 26.04 41.96 29.18 41.16 32.46C40.4 35.7 39.54 38.92 38.58 42.12C37.62 45.32 36.56 48.32 35.4 51.12C34.76 52.72 34 53.76 33.12 54.24C32.28 54.72 31.56 54.96 30.96 54.96ZM60.2616 53.04C57.7816 53.04 55.7816 52.18 54.2616 50.46C52.7416 48.7 51.9816 45.88 51.9816 42C51.9816 39.52 52.2616 37.04 52.8216 34.56C53.4216 32.04 54.2416 29.66 55.2816 27.42C56.3616 25.14 57.6016 23.12 59.0016 21.36C60.4416 19.6 62.0216 18.22 63.7416 17.22C65.4616 16.18 67.2416 15.66 69.0816 15.66C72.2016 15.66 74.6416 16.5 76.4016 18.18C78.1616 19.86 79.0416 22 79.0416 24.6C79.0416 26.6 78.4816 28.42 77.3616 30.06C76.2816 31.66 74.8016 33.1 72.9216 34.38C71.0416 35.66 68.9416 36.82 66.6216 37.86C64.3016 38.9 61.9216 39.84 59.4816 40.68C59.2816 42.12 59.1816 43.4 59.1816 44.52C59.1816 45.2 59.5616 45.54 60.3216 45.54C62.1216 45.54 64.0416 45.26 66.0816 44.7C68.1616 44.1 70.2616 43.34 72.3816 42.42C74.5016 41.46 76.5416 40.48 78.5016 39.48C80.4616 38.44 82.2416 37.46 83.8416 36.54C85.4816 35.58 86.8216 34.82 87.8616 34.26C88.9416 33.66 89.6416 33.36 89.9616 33.36C90.8416 33.36 91.4816 33.62 91.8816 34.14C92.2816 34.66 92.4816 35.22 92.4816 35.82C92.4816 36.1 91.9416 36.72 90.8616 37.68C89.8216 38.64 88.3816 39.78 86.5416 41.1C84.7416 42.38 82.7016 43.72 80.4216 45.12C78.1816 46.48 75.8416 47.78 73.4016 49.02C71.0016 50.22 68.6616 51.18 66.3816 51.9C64.1416 52.66 62.1016 53.04 60.2616 53.04ZM60.5016 35.34C62.1416 34.38 63.7616 33.38 65.3616 32.34C67.0016 31.26 68.3616 30.06 69.4416 28.74C70.5216 27.38 71.0616 25.8 71.0616 24C71.0616 23.48 70.9216 23.14 70.6416 22.98C70.3616 22.78 69.9616 22.68 69.4416 22.68C68.0416 22.68 66.7616 23.3 65.6016 24.54C64.4816 25.78 63.4816 27.38 62.6016 29.34C61.7616 31.26 61.0616 33.26 60.5016 35.34ZM91.1203 49.8C90.1603 49.8 89.4603 49.48 89.0203 48.84C88.5803 48.16 88.4003 47.32 88.4803 46.32C88.5203 45.76 88.9603 44.96 89.8003 43.92C90.6403 42.84 91.7403 41.58 93.1003 40.14C94.4603 38.66 95.9603 37.08 97.6003 35.4C99.2803 33.68 101 31.94 102.76 30.18C100.56 26.94 98.9003 24.34 97.7803 22.38C96.7003 20.42 96.1203 18.88 96.0403 17.76C95.9603 16.52 96.1603 15.52 96.6403 14.76C97.1603 14 97.9803 13.62 99.1003 13.62C99.7403 13.62 100.4 13.92 101.08 14.52C101.8 15.12 102.7 16.22 103.78 17.82C104.9 19.42 106.38 21.68 108.22 24.6C110.98 21.84 113.24 19.6 115 17.88C116.8 16.12 118.24 14.76 119.32 13.8C120.44 12.84 121.3 12.18 121.9 11.82C122.54 11.46 123.08 11.28 123.52 11.28C124.48 11.28 125.16 11.62 125.56 12.3C126 12.94 126.18 13.78 126.1 14.82C126.02 15.66 125.52 16.68 124.6 17.88C123.72 19.04 122.58 20.32 121.18 21.72C119.78 23.08 118.26 24.5 116.62 25.98C115.02 27.42 113.46 28.84 111.94 30.24C114.42 33.76 116.74 36.84 118.9 39.48C121.1 42.08 122.88 44.24 124.24 45.96C125.6 47.64 126.3 48.88 126.34 49.68C126.42 50.52 126.2 51.18 125.68 51.66C125.2 52.14 124.5 52.38 123.58 52.38C123.06 52.38 122.42 52.2 121.66 51.84C120.9 51.48 119.88 50.74 118.6 49.62C117.36 48.5 115.76 46.82 113.8 44.58C111.88 42.3 109.48 39.24 106.6 35.4C104.96 37.08 103.32 38.76 101.68 40.44C100.08 42.12 98.5603 43.68 97.1203 45.12C95.7203 46.52 94.4803 47.66 93.4003 48.54C92.3603 49.38 91.6003 49.8 91.1203 49.8ZM173.966 20.76C173.966 21.24 173.806 21.66 173.486 22.02C173.166 22.38 172.766 22.66 172.286 22.86C171.606 23.14 170.426 23.5 168.746 23.94C167.066 24.38 165.026 24.88 162.626 25.44C160.266 26 157.726 26.58 155.006 27.18C152.286 27.74 149.566 28.28 146.846 28.8C145.806 32.64 144.746 36.6 143.666 40.68C142.586 44.72 141.506 48.7 140.426 52.62C140.026 54.02 139.546 55.08 138.986 55.8C138.426 56.56 137.466 56.94 136.106 56.94C134.626 56.94 133.626 56.46 133.106 55.5C132.626 54.58 132.566 53.32 132.926 51.72C133.966 47.36 134.926 43.3 135.806 39.54C136.726 35.78 137.466 32.74 138.026 30.42C135.626 30.82 133.526 31.14 131.726 31.38C129.926 31.58 128.646 31.66 127.886 31.62C127.046 31.54 126.346 31.2 125.786 30.6C125.226 30 124.966 29.26 125.006 28.38C125.086 27.58 125.446 26.9 126.086 26.34C126.726 25.74 127.486 25.38 128.366 25.26C129.606 25.14 131.206 24.96 133.166 24.72C135.126 24.48 137.286 24.2 139.646 23.88C140.166 21.84 140.766 19.74 141.446 17.58C142.126 15.38 142.826 13.28 143.546 11.28C144.306 9.24 145.026 7.46 145.706 5.94C146.386 4.42 147.006 3.32 147.566 2.64C148.006 2.12 148.546 1.72 149.186 1.44C149.866 1.16 150.526 1.02 151.166 1.02C152.006 1.02 152.686 1.32 153.206 1.92C153.726 2.52 153.986 3.22 153.986 4.02C153.986 4.34 153.966 4.68 153.926 5.04C153.886 5.36 153.806 5.68 153.686 6C152.926 8 152.106 10.42 151.226 13.26C150.386 16.1 149.506 19.22 148.586 22.62C151.586 22.18 154.526 21.74 157.406 21.3C160.326 20.82 162.966 20.38 165.326 19.98C167.726 19.54 169.646 19.16 171.086 18.84C171.886 18.56 172.566 18.62 173.126 19.02C173.686 19.38 173.966 19.96 173.966 20.76ZM201.755 51.48C200.715 51.48 199.955 50.98 199.475 49.98C198.995 48.98 198.755 47.2 198.755 44.64C198.755 41.04 198.975 37.24 199.415 33.24C199.895 29.2 200.515 24.84 201.275 20.16C201.955 16.44 203.575 13.58 206.135 11.58C208.735 9.58 212.215 7.94 216.575 6.66C219.295 5.86 222.115 5.12 225.035 4.44C227.955 3.76 230.695 3.22 233.255 2.82C235.855 2.38 237.995 2.16 239.675 2.16C240.955 2.16 241.955 2.36 242.675 2.76C243.395 3.16 243.895 3.66 244.175 4.26C244.495 4.82 244.655 5.34 244.655 5.82C244.655 6.58 244.475 7.26 244.115 7.86C243.755 8.46 242.975 8.92 241.775 9.24C241.255 9.4 240.155 9.68 238.475 10.08C236.835 10.44 234.815 10.88 232.415 11.4C230.055 11.92 227.555 12.48 224.915 13.08C222.275 13.64 219.715 14.22 217.235 14.82C214.795 15.54 212.995 16.42 211.835 17.46C210.715 18.46 209.975 19.92 209.615 21.84C209.535 22.24 209.455 22.8 209.375 23.52C211.015 23 212.775 22.58 214.655 22.26C216.535 21.94 218.275 21.7 219.875 21.54C221.475 21.38 222.655 21.3 223.415 21.3C224.215 21.3 225.055 21.44 225.935 21.72C226.855 21.96 227.635 22.34 228.275 22.86C228.955 23.34 229.295 23.96 229.295 24.72C229.295 25.44 229.015 26.1 228.455 26.7C227.895 27.26 226.755 27.8 225.035 28.32C224.675 28.44 223.855 28.6 222.575 28.8C221.335 29 219.855 29.26 218.135 29.58C216.455 29.86 214.735 30.18 212.975 30.54C211.255 30.9 209.735 31.28 208.415 31.68C208.135 33.84 207.875 36 207.635 38.16C207.395 40.32 207.195 42.2 207.035 43.8C206.875 45.36 206.755 46.34 206.675 46.74C206.435 48.22 205.855 49.38 204.935 50.22C204.015 51.06 202.955 51.48 201.755 51.48ZM261.917 53.7C260.997 53.7 260.157 53.32 259.397 52.56C258.677 51.84 258.317 50.62 258.317 48.9C258.317 47.62 258.417 45.84 258.617 43.56C258.857 41.24 259.297 38.26 259.937 34.62C258.537 37.5 257.077 40.06 255.557 42.3C254.037 44.54 252.537 46.3 251.057 47.58C249.617 48.82 248.237 49.44 246.917 49.44C244.797 49.44 243.117 48.8 241.877 47.52C240.637 46.2 240.017 43.74 240.017 40.14C240.017 38.42 240.157 36.48 240.437 34.32C240.757 32.16 241.157 30 241.637 27.84C242.117 25.68 242.597 23.76 243.077 22.08C243.597 20.36 244.057 19.08 244.457 18.24C244.777 17.52 245.177 16.96 245.657 16.56C246.177 16.16 246.837 15.96 247.637 15.96C248.917 15.96 249.897 16.38 250.577 17.22C251.257 18.06 251.597 18.92 251.597 19.8C251.597 20.48 251.437 21.46 251.117 22.74C250.837 24.02 250.477 25.44 250.037 27C249.637 28.56 249.217 30.16 248.777 31.8C248.337 33.44 247.957 34.98 247.637 36.42C247.357 37.86 247.217 39.08 247.217 40.08C247.217 41.32 247.697 41.94 248.657 41.94C249.217 41.94 249.937 41.4 250.817 40.32C251.737 39.24 252.697 37.8 253.697 36C254.737 34.16 255.777 32.16 256.817 30C257.897 27.8 258.877 25.58 259.757 23.34C260.677 21.06 261.457 18.96 262.097 17.04C262.497 15.84 263.037 15 263.717 14.52C264.397 14.04 265.177 13.8 266.057 13.8C267.417 13.8 268.457 14.18 269.177 14.94C269.937 15.7 270.317 16.78 270.317 18.18C270.317 18.82 270.217 19.9 270.017 21.42C269.817 22.94 269.557 24.72 269.237 26.76C268.957 28.8 268.617 30.96 268.217 33.24C267.817 35.52 267.417 37.76 267.017 39.96C266.657 42.16 266.297 44.18 265.937 46.02C265.577 47.82 265.277 49.26 265.037 50.34C264.637 51.94 264.157 52.9 263.597 53.22C263.037 53.54 262.477 53.7 261.917 53.7ZM321.915 20.76C321.915 21.24 321.755 21.66 321.435 22.02C321.115 22.38 320.715 22.66 320.235 22.86C319.555 23.14 318.375 23.5 316.695 23.94C315.015 24.38 312.975 24.88 310.575 25.44C308.215 26 305.675 26.58 302.955 27.18C300.235 27.74 297.515 28.28 294.795 28.8C293.755 32.64 292.695 36.6 291.615 40.68C290.535 44.72 289.455 48.7 288.375 52.62C287.975 54.02 287.495 55.08 286.935 55.8C286.375 56.56 285.415 56.94 284.055 56.94C282.575 56.94 281.575 56.46 281.055 55.5C280.575 54.58 280.515 53.32 280.875 51.72C281.915 47.36 282.875 43.3 283.755 39.54C284.675 35.78 285.415 32.74 285.975 30.42C283.575 30.82 281.475 31.14 279.675 31.38C277.875 31.58 276.595 31.66 275.835 31.62C274.995 31.54 274.295 31.2 273.735 30.6C273.175 30 272.915 29.26 272.955 28.38C273.035 27.58 273.395 26.9 274.035 26.34C274.675 25.74 275.435 25.38 276.315 25.26C277.555 25.14 279.155 24.96 281.115 24.72C283.075 24.48 285.235 24.2 287.595 23.88C288.115 21.84 288.715 19.74 289.395 17.58C290.075 15.38 290.775 13.28 291.495 11.28C292.255 9.24 292.975 7.46 293.655 5.94C294.335 4.42 294.955 3.32 295.515 2.64C295.955 2.12 296.495 1.72 297.135 1.44C297.815 1.16 298.475 1.02 299.115 1.02C299.955 1.02 300.635 1.32 301.155 1.92C301.675 2.52 301.935 3.22 301.935 4.02C301.935 4.34 301.915 4.68 301.875 5.04C301.835 5.36 301.755 5.68 301.635 6C300.875 8 300.055 10.42 299.175 13.26C298.335 16.1 297.455 19.22 296.535 22.62C299.535 22.18 302.475 21.74 305.355 21.3C308.275 20.82 310.915 20.38 313.275 19.98C315.675 19.54 317.595 19.16 319.035 18.84C319.835 18.56 320.515 18.62 321.075 19.02C321.635 19.38 321.915 19.96 321.915 20.76ZM333.402 57.7C332.482 57.7 331.642 57.32 330.882 56.56C330.162 55.84 329.802 54.62 329.802 52.9C329.802 51.62 329.902 49.84 330.102 47.56C330.342 45.24 330.782 42.26 331.422 38.62C330.022 41.5 328.562 44.06 327.042 46.3C325.522 48.54 324.022 50.3 322.542 51.58C321.102 52.82 319.722 53.44 318.402 53.44C316.282 53.44 314.602 52.8 313.362 51.52C312.122 50.2 311.502 47.74 311.502 44.14C311.502 42.42 311.642 40.48 311.922 38.32C312.242 36.16 312.642 34 313.122 31.84C313.602 29.68 314.082 27.76 314.562 26.08C315.082 24.36 315.542 23.08 315.942 22.24C316.262 21.52 316.662 20.96 317.142 20.56C317.662 20.16 318.322 19.96 319.122 19.96C320.402 19.96 321.382 20.38 322.062 21.22C322.742 22.06 323.082 22.92 323.082 23.8C323.082 24.48 322.922 25.46 322.602 26.74C322.322 28.02 321.962 29.44 321.522 31C321.122 32.56 320.702 34.16 320.262 35.8C319.822 37.44 319.442 38.98 319.122 40.42C318.842 41.86 318.702 43.08 318.702 44.08C318.702 45.32 319.182 45.94 320.142 45.94C320.702 45.94 321.422 45.4 322.302 44.32C323.222 43.24 324.182 41.8 325.182 40C326.222 38.16 327.262 36.16 328.302 34C329.382 31.8 330.362 29.58 331.242 27.34C332.162 25.06 332.942 22.96 333.582 21.04C333.982 19.84 334.522 19 335.202 18.52C335.882 18.04 336.662 17.8 337.542 17.8C338.902 17.8 339.942 18.18 340.662 18.94C341.422 19.7 341.802 20.78 341.802 22.18C341.802 22.82 341.702 23.9 341.502 25.42C341.302 26.94 341.042 28.72 340.722 30.76C340.442 32.8 340.102 34.96 339.702 37.24C339.302 39.52 338.902 41.76 338.502 43.96C338.142 46.16 337.782 48.18 337.422 50.02C337.062 51.82 336.762 53.26 336.522 54.34C336.122 55.94 335.642 56.9 335.082 57.22C334.522 57.54 333.962 57.7 333.402 57.7ZM351.93 53.64C350.93 53.64 350.07 53.28 349.35 52.56C348.67 51.84 348.33 50.8 348.33 49.44C348.33 48.84 348.41 47.86 348.57 46.5C348.77 45.1 349.01 43.5 349.29 41.7C349.61 39.9 349.91 38.02 350.19 36.06C350.51 34.1 350.77 32.24 350.97 30.48C351.21 28.72 351.37 27.22 351.45 25.98C351.53 24.46 351.93 23.38 352.65 22.74C353.37 22.06 354.23 21.72 355.23 21.72C356.03 21.72 356.75 21.92 357.39 22.32C358.07 22.68 358.49 23.46 358.65 24.66C358.85 25.82 358.87 27.5 358.71 29.7C360.47 26.5 362.25 23.64 364.05 21.12C365.89 18.6 367.81 16.6 369.81 15.12C373.13 12.6 376.13 11.34 378.81 11.34C380.33 11.34 381.33 11.68 381.81 12.36C382.29 13.04 382.53 13.74 382.53 14.46C382.53 14.94 382.41 15.38 382.17 15.78C381.97 16.18 381.53 16.6 380.85 17.04C380.17 17.48 379.13 18.06 377.73 18.78C375.85 19.74 373.99 21 372.15 22.56C370.35 24.12 368.55 26.12 366.75 28.56C364.95 31 363.13 34 361.29 37.56C359.45 41.12 357.55 45.36 355.59 50.28C355.23 51.64 354.71 52.54 354.03 52.98C353.39 53.42 352.69 53.64 351.93 53.64ZM387.156 53.04C384.676 53.04 382.676 52.18 381.156 50.46C379.636 48.7 378.876 45.88 378.876 42C378.876 39.52 379.156 37.04 379.716 34.56C380.316 32.04 381.136 29.66 382.176 27.42C383.256 25.14 384.496 23.12 385.896 21.36C387.336 19.6 388.916 18.22 390.636 17.22C392.356 16.18 394.136 15.66 395.976 15.66C399.096 15.66 401.536 16.5 403.296 18.18C405.056 19.86 405.936 22 405.936 24.6C405.936 26.6 405.376 28.42 404.256 30.06C403.176 31.66 401.696 33.1 399.816 34.38C397.936 35.66 395.836 36.82 393.516 37.86C391.196 38.9 388.816 39.84 386.376 40.68C386.176 42.12 386.076 43.4 386.076 44.52C386.076 45.2 386.456 45.54 387.216 45.54C389.016 45.54 390.936 45.26 392.976 44.7C395.056 44.1 397.156 43.34 399.276 42.42C401.396 41.46 403.436 40.48 405.396 39.48C407.356 38.44 409.136 37.46 410.736 36.54C412.376 35.58 413.716 34.82 414.756 34.26C415.836 33.66 416.536 33.36 416.856 33.36C417.736 33.36 418.376 33.62 418.776 34.14C419.176 34.66 419.376 35.22 419.376 35.82C419.376 36.1 418.836 36.72 417.756 37.68C416.716 38.64 415.276 39.78 413.436 41.1C411.636 42.38 409.596 43.72 407.316 45.12C405.076 46.48 402.736 47.78 400.296 49.02C397.896 50.22 395.556 51.18 393.276 51.9C391.036 52.66 388.996 53.04 387.156 53.04ZM387.396 35.34C389.036 34.38 390.656 33.38 392.256 32.34C393.896 31.26 395.256 30.06 396.336 28.74C397.416 27.38 397.956 25.8 397.956 24C397.956 23.48 397.816 23.14 397.536 22.98C397.256 22.78 396.856 22.68 396.336 22.68C394.936 22.68 393.656 23.3 392.496 24.54C391.376 25.78 390.376 27.38 389.496 29.34C388.656 31.26 387.956 33.26 387.396 35.34ZM456.519 51C454.119 51 451.839 50.48 449.679 49.44C447.559 48.36 445.819 46.84 444.459 44.88C443.139 42.88 442.479 40.54 442.479 37.86C442.479 35.22 443.039 32.6 444.159 30C445.279 27.36 446.739 24.82 448.539 22.38C450.379 19.9 452.359 17.6 454.479 15.48C456.639 13.36 458.739 11.52 460.779 9.96C462.859 8.36 464.699 7.12 466.299 6.24C467.939 5.32 469.139 4.86 469.899 4.86C470.699 4.86 471.519 5.2 472.359 5.88C473.199 6.56 473.639 7.54 473.679 8.82C473.679 9.38 473.519 10.02 473.199 10.74C472.879 11.46 472.139 12.18 470.979 12.9C469.979 13.5 468.639 14.38 466.959 15.54C465.319 16.7 463.579 18.06 461.739 19.62C459.899 21.18 458.139 22.92 456.459 24.84C454.819 26.72 453.479 28.72 452.439 30.84C451.399 32.96 450.879 35.14 450.879 37.38C450.879 39.22 451.419 40.62 452.499 41.58C453.579 42.5 455.039 42.96 456.879 42.96C458.159 42.96 459.679 42.6 461.439 41.88C463.239 41.16 465.079 40.24 466.959 39.12C468.839 37.96 470.559 36.72 472.119 35.4C473.719 34.08 474.959 32.82 475.839 31.62C474.319 31.94 472.639 32.3 470.799 32.7C468.999 33.06 467.319 33.38 465.759 33.66C464.199 33.9 463.079 34.02 462.399 34.02C461.199 34.02 460.199 33.78 459.399 33.3C458.599 32.82 457.999 32.26 457.599 31.62C457.199 30.94 456.999 30.3 456.999 29.7C456.999 29.02 457.259 28.32 457.779 27.6C458.299 26.88 459.199 26.42 460.479 26.22C461.319 26.1 462.459 25.92 463.899 25.68C465.339 25.4 466.839 25.14 468.399 24.9C469.999 24.62 471.459 24.38 472.779 24.18C474.139 23.98 475.159 23.88 475.839 23.88C480.879 23.88 483.399 26.7 483.399 32.34C483.399 33.42 482.839 34.76 481.719 36.36C480.599 37.92 479.079 39.56 477.159 41.28C475.279 42.96 473.159 44.54 470.799 46.02C468.439 47.5 466.019 48.7 463.539 49.62C461.099 50.54 458.759 51 456.519 51ZM500.594 53.04C498.114 53.04 496.114 52.18 494.594 50.46C493.074 48.7 492.314 45.88 492.314 42C492.314 39.52 492.594 37.04 493.154 34.56C493.754 32.04 494.574 29.66 495.614 27.42C496.694 25.14 497.934 23.12 499.334 21.36C500.774 19.6 502.354 18.22 504.074 17.22C505.794 16.18 507.574 15.66 509.414 15.66C512.534 15.66 514.974 16.5 516.734 18.18C518.494 19.86 519.374 22 519.374 24.6C519.374 26.6 518.814 28.42 517.694 30.06C516.614 31.66 515.134 33.1 513.254 34.38C511.374 35.66 509.274 36.82 506.954 37.86C504.634 38.9 502.254 39.84 499.814 40.68C499.614 42.12 499.514 43.4 499.514 44.52C499.514 45.2 499.894 45.54 500.654 45.54C502.454 45.54 504.374 45.26 506.414 44.7C508.494 44.1 510.594 43.34 512.714 42.42C514.834 41.46 516.874 40.48 518.834 39.48C520.794 38.44 522.574 37.46 524.174 36.54C525.814 35.58 527.154 34.82 528.194 34.26C529.274 33.66 529.974 33.36 530.294 33.36C531.174 33.36 531.814 33.62 532.214 34.14C532.614 34.66 532.814 35.22 532.814 35.82C532.814 36.1 532.274 36.72 531.194 37.68C530.154 38.64 528.714 39.78 526.874 41.1C525.074 42.38 523.034 43.72 520.754 45.12C518.514 46.48 516.174 47.78 513.734 49.02C511.334 50.22 508.994 51.18 506.714 51.9C504.474 52.66 502.434 53.04 500.594 53.04ZM500.834 35.34C502.474 34.38 504.094 33.38 505.694 32.34C507.334 31.26 508.694 30.06 509.774 28.74C510.854 27.38 511.394 25.8 511.394 24C511.394 23.48 511.254 23.14 510.974 22.98C510.694 22.78 510.294 22.68 509.774 22.68C508.374 22.68 507.094 23.3 505.934 24.54C504.814 25.78 503.814 27.38 502.934 29.34C502.094 31.26 501.394 33.26 500.834 35.34ZM534.418 51C533.458 51 532.498 50.68 531.538 50.04C530.618 49.36 529.858 48.4 529.258 47.16C528.658 45.88 528.358 44.34 528.358 42.54C528.358 40.14 528.678 37.58 529.318 34.86C529.998 32.14 530.818 29.42 531.778 26.7C532.738 23.98 533.678 21.42 534.598 19.02C535.038 17.86 535.578 17.08 536.218 16.68C536.858 16.24 537.698 16.02 538.738 16.02C541.098 16.02 542.278 17.2 542.278 19.56C542.278 19.96 542.098 20.74 541.738 21.9C541.378 23.02 540.898 24.4 540.298 26.04C539.738 27.68 539.138 29.46 538.498 31.38C537.898 33.26 537.338 35.18 536.818 37.14C536.338 39.06 535.958 40.88 535.678 42.6C536.598 41.2 537.618 39.46 538.738 37.38C539.898 35.26 541.118 33.04 542.398 30.72C543.718 28.4 545.038 26.24 546.358 24.24C547.678 22.2 548.978 20.54 550.258 19.26C551.538 17.98 552.758 17.34 553.918 17.34C554.918 17.34 555.858 17.54 556.738 17.94C557.658 18.3 558.458 19.02 559.138 20.1C559.818 21.14 560.338 22.64 560.698 24.6C561.098 26.56 561.298 29.14 561.298 32.34C561.298 33.94 561.438 35.5 561.718 37.02C562.038 38.5 562.558 39.74 563.278 40.74C563.998 41.7 565.018 42.18 566.338 42.18C568.618 42.18 570.658 41.76 572.458 40.92C574.258 40.08 575.838 39.1 577.198 37.98C578.558 36.86 579.698 35.88 580.618 35.04C581.178 34.48 581.658 34.04 582.058 33.72C582.498 33.4 582.858 33.24 583.138 33.24C583.978 33.24 584.578 33.46 584.938 33.9C585.338 34.34 585.538 34.94 585.538 35.7C585.538 36.1 585.198 36.84 584.518 37.92C583.838 39 582.878 40.24 581.638 41.64C580.438 43 579.058 44.32 577.498 45.6C575.938 46.88 574.258 47.94 572.458 48.78C570.658 49.62 568.818 50.04 566.938 50.04C563.778 50.04 561.158 49.48 559.078 48.36C557.038 47.2 555.518 45.28 554.518 42.6C553.518 39.88 553.018 36.18 553.018 31.5C553.018 31.38 553.018 31.18 553.018 30.9C553.018 29.66 552.998 28.56 552.958 27.6C552.958 26.64 552.898 25.86 552.778 25.26C552.098 26.5 551.278 27.98 550.318 29.7C549.398 31.42 548.398 33.26 547.318 35.22C546.238 37.14 545.118 39.04 543.958 40.92C542.798 42.76 541.638 44.44 540.478 45.96C539.358 47.48 538.278 48.7 537.238 49.62C536.198 50.54 535.258 51 534.418 51ZM607.292 52.5C606.892 52.5 606.132 52.48 605.012 52.44C603.892 52.4 602.552 52.34 600.992 52.26C599.432 52.18 597.812 52.1 596.132 52.02C594.492 51.94 592.932 51.88 591.452 51.84C589.972 51.8 588.772 51.78 587.852 51.78C586.412 51.78 585.212 51.34 584.252 50.46C583.332 49.54 582.872 48.26 582.872 46.62C582.872 45.66 583.392 44.4 584.432 42.84C585.512 41.24 586.912 39.48 588.632 37.56C590.352 35.6 592.212 33.62 594.212 31.62C596.252 29.62 598.272 27.74 600.272 25.98C602.312 24.18 604.112 22.64 605.672 21.36C603.032 21.72 600.492 22.14 598.052 22.62C595.612 23.1 593.492 23.52 591.692 23.88C589.932 24.24 588.732 24.42 588.092 24.42C586.932 24.42 586.012 24.1 585.332 23.46C584.652 22.78 584.312 21.88 584.312 20.76C584.312 20.28 584.812 19.78 585.812 19.26C586.812 18.7 588.172 18.18 589.892 17.7C591.612 17.22 593.552 16.78 595.712 16.38C597.912 15.98 600.192 15.68 602.552 15.48C604.952 15.24 607.312 15.12 609.632 15.12C610.752 15.12 611.692 15.4 612.452 15.96C613.252 16.48 613.852 17.16 614.252 18C614.692 18.8 614.912 19.62 614.912 20.46C614.912 20.78 614.472 21.44 613.592 22.44C612.712 23.44 611.552 24.68 610.112 26.16C608.672 27.6 607.072 29.18 605.312 30.9C603.552 32.58 601.792 34.3 600.032 36.06C598.312 37.78 596.712 39.42 595.232 40.98C593.752 42.54 592.552 43.9 591.632 45.06C593.192 45.02 594.952 44.96 596.912 44.88C598.872 44.8 600.772 44.72 602.612 44.64C604.452 44.56 606.052 44.5 607.412 44.46C608.772 44.42 609.632 44.4 609.992 44.4C611.272 44.4 612.192 44.7 612.752 45.3C613.312 45.9 613.592 46.6 613.592 47.4C613.592 48.6 613.012 49.76 611.852 50.88C610.732 51.96 609.212 52.5 607.292 52.5Z" fill="white"/>
</svg>
