<svg width="410" height="38" viewBox="0 0 410 38" fill="none" xmlns="http://www.w3.org/2000/svg">
<path d="M20.64 36.64C20.08 36.64 19.56 36.5067 19.08 36.24C18.6 35.9733 18.2133 35.5067 17.92 34.84C17.6533 34.1733 17.5733 33.24 17.68 32.04C16.7467 28.8933 15.8933 25.76 15.12 22.64C14.3733 19.52 13.6667 16.3067 13 13C12.04 15.1867 11.1733 17.4267 10.4 19.72C9.62667 21.9867 8.93333 24.1333 8.32 26.16C7.70667 28.16 7.14667 29.84 6.64 31.2C6.24 32.4 5.84 33.2933 5.44 33.88C5.04 34.44 4.64 34.8 4.24 34.96C3.86667 35.1467 3.49333 35.24 3.12 35.24C2.21333 35.24 1.52 35.0267 1.04 34.6C0.56 34.1733 0.32 33.4 0.32 32.28C0.32 31.6933 0.48 30.8 0.8 29.6C1.12 28.3733 1.54667 26.9733 2.08 25.4C2.64 23.8 3.28 22.1333 4 20.4C4.72 18.64 5.48 16.9333 6.28 15.28C7.08 13.6267 7.88 12.1333 8.68 10.8C9.48 9.44 10.2533 8.36 11 7.56C11.7467 6.76 12.4133 6.36 13 6.36C13.5067 6.36 13.9733 6.41333 14.4 6.52C14.8267 6.6 15.24 6.84 15.64 7.24C16.04 7.61333 16.4533 8.24 16.88 9.12C17.2267 9.78667 17.5733 10.7467 17.92 12C18.2667 13.2267 18.6 14.64 18.92 16.24C19.24 17.8133 19.56 19.4667 19.88 21.2C20.2267 22.9333 20.5733 24.6267 20.92 26.28C21.9333 21.6667 22.7467 17.6133 23.36 14.12C24 10.6 24.4667 7.84 24.76 5.84C25.0533 3.84 25.2133 2.78666 25.24 2.68C25.4267 1.90667 25.6267 1.37333 25.84 1.08C26.0533 0.759999 26.2933 0.573332 26.56 0.52C26.8267 0.439999 27.1333 0.399999 27.48 0.399999C27.5067 0.399999 27.52 0.399999 27.52 0.399999C28.2133 0.399999 28.8933 0.679998 29.56 1.24C30.2533 1.8 30.6 2.56 30.6 3.52C30.6 3.84 30.5333 4.56 30.4 5.68C30.2667 6.77333 30.0667 8.16 29.8 9.84C29.56 11.4933 29.24 13.3333 28.84 15.36C28.44 17.36 27.9733 19.4533 27.44 21.64C26.9333 23.8 26.36 25.9467 25.72 28.08C25.08 30.2133 24.3733 32.2133 23.6 34.08C23.1733 35.1467 22.6667 35.84 22.08 36.16C21.52 36.48 21.04 36.64 20.64 36.64ZM40.1744 35.36C38.521 35.36 37.1877 34.7867 36.1744 33.64C35.161 32.4667 34.6544 30.5867 34.6544 28C34.6544 26.3467 34.841 24.6933 35.2144 23.04C35.6144 21.36 36.161 19.7733 36.8544 18.28C37.5744 16.76 38.401 15.4133 39.3344 14.24C40.2944 13.0667 41.3477 12.1467 42.4944 11.48C43.641 10.7867 44.8277 10.44 46.0544 10.44C48.1344 10.44 49.761 11 50.9344 12.12C52.1077 13.24 52.6944 14.6667 52.6944 16.4C52.6944 17.7333 52.321 18.9467 51.5744 20.04C50.8544 21.1067 49.8677 22.0667 48.6144 22.92C47.361 23.7733 45.961 24.5467 44.4144 25.24C42.8677 25.9333 41.281 26.56 39.6544 27.12C39.521 28.08 39.4544 28.9333 39.4544 29.68C39.4544 30.1333 39.7077 30.36 40.2144 30.36C41.4144 30.36 42.6944 30.1733 44.0544 29.8C45.441 29.4 46.841 28.8933 48.2544 28.28C49.6677 27.64 51.0277 26.9867 52.3344 26.32C53.641 25.6267 54.8277 24.9733 55.8944 24.36C56.9877 23.72 57.881 23.2133 58.5744 22.84C59.2944 22.44 59.761 22.24 59.9744 22.24C60.561 22.24 60.9877 22.4133 61.2544 22.76C61.521 23.1067 61.6544 23.48 61.6544 23.88C61.6544 24.0667 61.2944 24.48 60.5744 25.12C59.881 25.76 58.921 26.52 57.6944 27.4C56.4944 28.2533 55.1344 29.1467 53.6144 30.08C52.121 30.9867 50.561 31.8533 48.9344 32.68C47.3344 33.48 45.7744 34.12 44.2544 34.6C42.761 35.1067 41.401 35.36 40.1744 35.36ZM40.3344 23.56C41.4277 22.92 42.5077 22.2533 43.5744 21.56C44.6677 20.84 45.5744 20.04 46.2944 19.16C47.0144 18.2533 47.3744 17.2 47.3744 16C47.3744 15.6533 47.281 15.4267 47.0944 15.32C46.9077 15.1867 46.641 15.12 46.2944 15.12C45.361 15.12 44.5077 15.5333 43.7344 16.36C42.9877 17.1867 42.321 18.2533 41.7344 19.56C41.1744 20.84 40.7077 22.1733 40.3344 23.56ZM60.7469 33.2C60.1069 33.2 59.6402 32.9867 59.3469 32.56C59.0535 32.1067 58.9335 31.5467 58.9869 30.88C59.0135 30.5067 59.3069 29.9733 59.8669 29.28C60.4269 28.56 61.1602 27.72 62.0669 26.76C62.9735 25.7733 63.9735 24.72 65.0669 23.6C66.1869 22.4533 67.3335 21.2933 68.5069 20.12C67.0402 17.96 65.9335 16.2267 65.1869 14.92C64.4669 13.6133 64.0802 12.5867 64.0269 11.84C63.9735 11.0133 64.1069 10.3467 64.4269 9.84C64.7735 9.33333 65.3202 9.08 66.0669 9.08C66.4935 9.08 66.9335 9.28 67.3869 9.68C67.8669 10.08 68.4669 10.8133 69.1869 11.88C69.9335 12.9467 70.9202 14.4533 72.1469 16.4C73.9869 14.56 75.4935 13.0667 76.6669 11.92C77.8669 10.7467 78.8269 9.84 79.5469 9.2C80.2935 8.56 80.8669 8.12 81.2669 7.88C81.6935 7.64 82.0535 7.52 82.3469 7.52C82.9869 7.52 83.4402 7.74666 83.7069 8.2C84.0002 8.62667 84.1202 9.18667 84.0669 9.88C84.0135 10.44 83.6802 11.12 83.0669 11.92C82.4802 12.6933 81.7202 13.5467 80.7869 14.48C79.8535 15.3867 78.8402 16.3333 77.7469 17.32C76.6802 18.28 75.6402 19.2267 74.6269 20.16C76.2802 22.5067 77.8269 24.56 79.2669 26.32C80.7335 28.0533 81.9202 29.4933 82.8269 30.64C83.7335 31.76 84.2002 32.5867 84.2269 33.12C84.2802 33.68 84.1335 34.12 83.7869 34.44C83.4669 34.76 83.0002 34.92 82.3869 34.92C82.0402 34.92 81.6135 34.8 81.1069 34.56C80.6002 34.32 79.9202 33.8267 79.0669 33.08C78.2402 32.3333 77.1735 31.2133 75.8669 29.72C74.5869 28.2 72.9869 26.16 71.0669 23.6C69.9735 24.72 68.8802 25.84 67.7869 26.96C66.7202 28.08 65.7069 29.12 64.7469 30.08C63.8135 31.0133 62.9869 31.7733 62.2669 32.36C61.5735 32.92 61.0669 33.2 60.7469 33.2ZM115.977 13.84C115.977 14.16 115.871 14.44 115.657 14.68C115.444 14.92 115.177 15.1067 114.857 15.24C114.404 15.4267 113.617 15.6667 112.497 15.96C111.377 16.2533 110.017 16.5867 108.417 16.96C106.844 17.3333 105.151 17.72 103.337 18.12C101.524 18.4933 99.7105 18.8533 97.8972 19.2C97.2039 21.76 96.4972 24.4 95.7772 27.12C95.0572 29.8133 94.3372 32.4667 93.6172 35.08C93.3505 36.0133 93.0305 36.72 92.6572 37.2C92.2839 37.7067 91.6439 37.96 90.7372 37.96C89.7505 37.96 89.0839 37.64 88.7372 37C88.4172 36.3867 88.3772 35.5467 88.6172 34.48C89.3105 31.5733 89.9505 28.8667 90.5372 26.36C91.1505 23.8533 91.6439 21.8267 92.0172 20.28C90.4172 20.5467 89.0172 20.76 87.8172 20.92C86.6172 21.0533 85.7639 21.1067 85.2572 21.08C84.6972 21.0267 84.2305 20.8 83.8572 20.4C83.4839 20 83.3105 19.5067 83.3372 18.92C83.3905 18.3867 83.6305 17.9333 84.0572 17.56C84.4839 17.16 84.9905 16.92 85.5772 16.84C86.4039 16.76 87.4705 16.64 88.7772 16.48C90.0839 16.32 91.5239 16.1333 93.0972 15.92C93.4439 14.56 93.8439 13.16 94.2972 11.72C94.7505 10.2533 95.2172 8.85333 95.6972 7.52C96.2039 6.16 96.6839 4.97333 97.1372 3.96C97.5905 2.94667 98.0039 2.21333 98.3772 1.76C98.6705 1.41333 99.0305 1.14666 99.4572 0.959999C99.9105 0.773331 100.351 0.679997 100.777 0.679997C101.337 0.679997 101.791 0.879998 102.137 1.28C102.484 1.68 102.657 2.14667 102.657 2.68C102.657 2.89333 102.644 3.12 102.617 3.36C102.591 3.57333 102.537 3.78667 102.457 4C101.951 5.33333 101.404 6.94667 100.817 8.84C100.257 10.7333 99.6705 12.8133 99.0572 15.08C101.057 14.7867 103.017 14.4933 104.937 14.2C106.884 13.88 108.644 13.5867 110.217 13.32C111.817 13.0267 113.097 12.7733 114.057 12.56C114.591 12.3733 115.044 12.4133 115.417 12.68C115.791 12.92 115.977 13.3067 115.977 13.84ZM134.503 34.32C133.81 34.32 133.303 33.9867 132.983 33.32C132.663 32.6533 132.503 31.4667 132.503 29.76C132.503 27.36 132.65 24.8267 132.943 22.16C133.263 19.4667 133.677 16.56 134.183 13.44C134.637 10.96 135.717 9.05333 137.423 7.72C139.157 6.38667 141.477 5.29333 144.383 4.44C146.197 3.90666 148.077 3.41333 150.023 2.96C151.97 2.50667 153.797 2.14667 155.503 1.88C157.237 1.58667 158.663 1.44 159.783 1.44C160.637 1.44 161.303 1.57333 161.783 1.84C162.263 2.10667 162.597 2.44 162.783 2.84C162.997 3.21333 163.103 3.56 163.103 3.88C163.103 4.38667 162.983 4.84 162.743 5.24C162.503 5.64 161.983 5.94666 161.183 6.16C160.837 6.26667 160.103 6.45333 158.983 6.72C157.89 6.96 156.543 7.25333 154.943 7.6C153.37 7.94667 151.703 8.32 149.943 8.72C148.183 9.09333 146.477 9.48 144.823 9.88C143.197 10.36 141.997 10.9467 141.223 11.64C140.477 12.3067 139.983 13.28 139.743 14.56C139.69 14.8267 139.637 15.2 139.583 15.68C140.677 15.3333 141.85 15.0533 143.103 14.84C144.357 14.6267 145.517 14.4667 146.583 14.36C147.65 14.2533 148.437 14.2 148.943 14.2C149.477 14.2 150.037 14.2933 150.623 14.48C151.237 14.64 151.757 14.8933 152.183 15.24C152.637 15.56 152.863 15.9733 152.863 16.48C152.863 16.96 152.677 17.4 152.303 17.8C151.93 18.1733 151.17 18.5333 150.023 18.88C149.783 18.96 149.237 19.0667 148.383 19.2C147.557 19.3333 146.57 19.5067 145.423 19.72C144.303 19.9067 143.157 20.12 141.983 20.36C140.837 20.6 139.823 20.8533 138.943 21.12C138.757 22.56 138.583 24 138.423 25.44C138.263 26.88 138.13 28.1333 138.023 29.2C137.917 30.24 137.837 30.8933 137.783 31.16C137.623 32.1467 137.237 32.92 136.623 33.48C136.01 34.04 135.303 34.32 134.503 34.32ZM174.612 35.8C173.998 35.8 173.438 35.5467 172.932 35.04C172.452 34.56 172.212 33.7467 172.212 32.6C172.212 31.7467 172.278 30.56 172.412 29.04C172.572 27.4933 172.865 25.5067 173.292 23.08C172.358 25 171.385 26.7067 170.372 28.2C169.358 29.6933 168.358 30.8667 167.372 31.72C166.412 32.5467 165.492 32.96 164.612 32.96C163.198 32.96 162.078 32.5333 161.252 31.68C160.425 30.8 160.012 29.16 160.012 26.76C160.012 25.6133 160.105 24.32 160.292 22.88C160.505 21.44 160.772 20 161.092 18.56C161.412 17.12 161.732 15.84 162.052 14.72C162.398 13.5733 162.705 12.72 162.972 12.16C163.185 11.68 163.452 11.3067 163.772 11.04C164.118 10.7733 164.558 10.64 165.092 10.64C165.945 10.64 166.598 10.92 167.052 11.48C167.505 12.04 167.732 12.6133 167.732 13.2C167.732 13.6533 167.625 14.3067 167.412 15.16C167.225 16.0133 166.985 16.96 166.692 18C166.425 19.04 166.145 20.1067 165.852 21.2C165.558 22.2933 165.305 23.32 165.092 24.28C164.905 25.24 164.812 26.0533 164.812 26.72C164.812 27.5467 165.132 27.96 165.772 27.96C166.145 27.96 166.625 27.6 167.212 26.88C167.825 26.16 168.465 25.2 169.132 24C169.825 22.7733 170.518 21.44 171.212 20C171.932 18.5333 172.585 17.0533 173.172 15.56C173.785 14.04 174.305 12.64 174.732 11.36C174.998 10.56 175.358 10 175.812 9.68C176.265 9.36 176.785 9.2 177.372 9.2C178.278 9.2 178.972 9.45333 179.452 9.96C179.958 10.4667 180.212 11.1867 180.212 12.12C180.212 12.5467 180.145 13.2667 180.012 14.28C179.878 15.2933 179.705 16.48 179.492 17.84C179.305 19.2 179.078 20.64 178.812 22.16C178.545 23.68 178.278 25.1733 178.012 26.64C177.772 28.1067 177.532 29.4533 177.292 30.68C177.052 31.88 176.852 32.84 176.692 33.56C176.425 34.6267 176.105 35.2667 175.732 35.48C175.358 35.6933 174.985 35.8 174.612 35.8ZM214.61 13.84C214.61 14.16 214.503 14.44 214.29 14.68C214.077 14.92 213.81 15.1067 213.49 15.24C213.037 15.4267 212.25 15.6667 211.13 15.96C210.01 16.2533 208.65 16.5867 207.05 16.96C205.477 17.3333 203.783 17.72 201.97 18.12C200.157 18.4933 198.343 18.8533 196.53 19.2C195.837 21.76 195.13 24.4 194.41 27.12C193.69 29.8133 192.97 32.4667 192.25 35.08C191.983 36.0133 191.663 36.72 191.29 37.2C190.917 37.7067 190.277 37.96 189.37 37.96C188.383 37.96 187.717 37.64 187.37 37C187.05 36.3867 187.01 35.5467 187.25 34.48C187.943 31.5733 188.583 28.8667 189.17 26.36C189.783 23.8533 190.277 21.8267 190.65 20.28C189.05 20.5467 187.65 20.76 186.45 20.92C185.25 21.0533 184.397 21.1067 183.89 21.08C183.33 21.0267 182.863 20.8 182.49 20.4C182.117 20 181.943 19.5067 181.97 18.92C182.023 18.3867 182.263 17.9333 182.69 17.56C183.117 17.16 183.623 16.92 184.21 16.84C185.037 16.76 186.103 16.64 187.41 16.48C188.717 16.32 190.157 16.1333 191.73 15.92C192.077 14.56 192.477 13.16 192.93 11.72C193.383 10.2533 193.85 8.85333 194.33 7.52C194.837 6.16 195.317 4.97333 195.77 3.96C196.223 2.94667 196.637 2.21333 197.01 1.76C197.303 1.41333 197.663 1.14666 198.09 0.959999C198.543 0.773331 198.983 0.679997 199.41 0.679997C199.97 0.679997 200.423 0.879998 200.77 1.28C201.117 1.68 201.29 2.14667 201.29 2.68C201.29 2.89333 201.277 3.12 201.25 3.36C201.223 3.57333 201.17 3.78667 201.09 4C200.583 5.33333 200.037 6.94667 199.45 8.84C198.89 10.7333 198.303 12.8133 197.69 15.08C199.69 14.7867 201.65 14.4933 203.57 14.2C205.517 13.88 207.277 13.5867 208.85 13.32C210.45 13.0267 211.73 12.7733 212.69 12.56C213.223 12.3733 213.677 12.4133 214.05 12.68C214.423 12.92 214.61 13.3067 214.61 13.84ZM222.268 37.8C221.654 37.8 221.094 37.5467 220.588 37.04C220.108 36.56 219.868 35.7467 219.868 34.6C219.868 33.7467 219.934 32.56 220.068 31.04C220.228 29.4933 220.521 27.5067 220.948 25.08C220.014 27 219.041 28.7067 218.028 30.2C217.014 31.6933 216.014 32.8667 215.028 33.72C214.068 34.5467 213.148 34.96 212.268 34.96C210.854 34.96 209.734 34.5333 208.908 33.68C208.081 32.8 207.668 31.16 207.668 28.76C207.668 27.6133 207.761 26.32 207.948 24.88C208.161 23.44 208.428 22 208.748 20.56C209.068 19.12 209.388 17.84 209.708 16.72C210.054 15.5733 210.361 14.72 210.628 14.16C210.841 13.68 211.108 13.3067 211.428 13.04C211.774 12.7733 212.214 12.64 212.748 12.64C213.601 12.64 214.254 12.92 214.708 13.48C215.161 14.04 215.388 14.6133 215.388 15.2C215.388 15.6533 215.281 16.3067 215.068 17.16C214.881 18.0133 214.641 18.96 214.348 20C214.081 21.04 213.801 22.1067 213.508 23.2C213.214 24.2933 212.961 25.32 212.748 26.28C212.561 27.24 212.468 28.0533 212.468 28.72C212.468 29.5467 212.788 29.96 213.428 29.96C213.801 29.96 214.281 29.6 214.868 28.88C215.481 28.16 216.121 27.2 216.788 26C217.481 24.7733 218.174 23.44 218.868 22C219.588 20.5333 220.241 19.0533 220.828 17.56C221.441 16.04 221.961 14.64 222.388 13.36C222.654 12.56 223.014 12 223.468 11.68C223.921 11.36 224.441 11.2 225.028 11.2C225.934 11.2 226.628 11.4533 227.108 11.96C227.614 12.4667 227.868 13.1867 227.868 14.12C227.868 14.5467 227.801 15.2667 227.668 16.28C227.534 17.2933 227.361 18.48 227.148 19.84C226.961 21.2 226.734 22.64 226.468 24.16C226.201 25.68 225.934 27.1733 225.668 28.64C225.428 30.1067 225.188 31.4533 224.948 32.68C224.708 33.88 224.508 34.84 224.348 35.56C224.081 36.6267 223.761 37.2667 223.388 37.48C223.014 37.6933 222.641 37.8 222.268 37.8ZM234.62 35.76C233.953 35.76 233.38 35.52 232.9 35.04C232.447 34.56 232.22 33.8667 232.22 32.96C232.22 32.56 232.273 31.9067 232.38 31C232.513 30.0667 232.673 29 232.86 27.8C233.073 26.6 233.273 25.3467 233.46 24.04C233.673 22.7333 233.847 21.4933 233.98 20.32C234.14 19.1467 234.247 18.1467 234.3 17.32C234.353 16.3067 234.62 15.5867 235.1 15.16C235.58 14.7067 236.153 14.48 236.82 14.48C237.353 14.48 237.833 14.6133 238.26 14.88C238.713 15.12 238.993 15.64 239.1 16.44C239.233 17.2133 239.247 18.3333 239.14 19.8C240.313 17.6667 241.5 15.76 242.7 14.08C243.927 12.4 245.207 11.0667 246.54 10.08C248.753 8.4 250.753 7.56 252.54 7.56C253.553 7.56 254.22 7.78667 254.54 8.24C254.86 8.69333 255.02 9.16 255.02 9.64C255.02 9.96 254.94 10.2533 254.78 10.52C254.647 10.7867 254.353 11.0667 253.9 11.36C253.447 11.6533 252.753 12.04 251.82 12.52C250.567 13.16 249.327 14 248.1 15.04C246.9 16.08 245.7 17.4133 244.5 19.04C243.3 20.6667 242.087 22.6667 240.86 25.04C239.633 27.4133 238.367 30.24 237.06 33.52C236.82 34.4267 236.473 35.0267 236.02 35.32C235.593 35.6133 235.127 35.76 234.62 35.76ZM258.104 35.36C256.451 35.36 255.117 34.7867 254.104 33.64C253.091 32.4667 252.584 30.5867 252.584 28C252.584 26.3467 252.771 24.6933 253.144 23.04C253.544 21.36 254.091 19.7733 254.784 18.28C255.504 16.76 256.331 15.4133 257.264 14.24C258.224 13.0667 259.277 12.1467 260.424 11.48C261.571 10.7867 262.757 10.44 263.984 10.44C266.064 10.44 267.691 11 268.864 12.12C270.037 13.24 270.624 14.6667 270.624 16.4C270.624 17.7333 270.251 18.9467 269.504 20.04C268.784 21.1067 267.797 22.0667 266.544 22.92C265.291 23.7733 263.891 24.5467 262.344 25.24C260.797 25.9333 259.211 26.56 257.584 27.12C257.451 28.08 257.384 28.9333 257.384 29.68C257.384 30.1333 257.637 30.36 258.144 30.36C259.344 30.36 260.624 30.1733 261.984 29.8C263.371 29.4 264.771 28.8933 266.184 28.28C267.597 27.64 268.957 26.9867 270.264 26.32C271.571 25.6267 272.757 24.9733 273.824 24.36C274.917 23.72 275.811 23.2133 276.504 22.84C277.224 22.44 277.691 22.24 277.904 22.24C278.491 22.24 278.917 22.4133 279.184 22.76C279.451 23.1067 279.584 23.48 279.584 23.88C279.584 24.0667 279.224 24.48 278.504 25.12C277.811 25.76 276.851 26.52 275.624 27.4C274.424 28.2533 273.064 29.1467 271.544 30.08C270.051 30.9867 268.491 31.8533 266.864 32.68C265.264 33.48 263.704 34.12 262.184 34.6C260.691 35.1067 259.331 35.36 258.104 35.36ZM258.264 23.56C259.357 22.92 260.437 22.2533 261.504 21.56C262.597 20.84 263.504 20.04 264.224 19.16C264.944 18.2533 265.304 17.2 265.304 16C265.304 15.6533 265.211 15.4267 265.024 15.32C264.837 15.1867 264.571 15.12 264.224 15.12C263.291 15.12 262.437 15.5333 261.664 16.36C260.917 17.1867 260.251 18.2533 259.664 19.56C259.104 20.84 258.637 22.1733 258.264 23.56ZM304.346 34C302.746 34 301.226 33.6533 299.786 32.96C298.373 32.24 297.213 31.2267 296.306 29.92C295.426 28.5867 294.986 27.0267 294.986 25.24C294.986 23.48 295.36 21.7333 296.106 20C296.853 18.24 297.826 16.5467 299.026 14.92C300.253 13.2667 301.573 11.7333 302.986 10.32C304.426 8.90667 305.826 7.68 307.186 6.64C308.573 5.57333 309.8 4.74667 310.866 4.16C311.96 3.54666 312.76 3.24 313.266 3.24C313.8 3.24 314.346 3.46666 314.906 3.92C315.466 4.37333 315.76 5.02667 315.786 5.88C315.786 6.25333 315.68 6.68 315.466 7.16C315.253 7.64 314.76 8.12 313.986 8.6C313.32 9 312.426 9.58667 311.306 10.36C310.213 11.1333 309.053 12.04 307.826 13.08C306.6 14.12 305.426 15.28 304.306 16.56C303.213 17.8133 302.32 19.1467 301.626 20.56C300.933 21.9733 300.586 23.4267 300.586 24.92C300.586 26.1467 300.946 27.08 301.666 27.72C302.386 28.3333 303.36 28.64 304.586 28.64C305.44 28.64 306.453 28.4 307.626 27.92C308.826 27.44 310.053 26.8267 311.306 26.08C312.56 25.3067 313.706 24.48 314.746 23.6C315.813 22.72 316.64 21.88 317.226 21.08C316.213 21.2933 315.093 21.5333 313.866 21.8C312.666 22.04 311.546 22.2533 310.506 22.44C309.466 22.6 308.72 22.68 308.266 22.68C307.466 22.68 306.8 22.52 306.266 22.2C305.733 21.88 305.333 21.5067 305.066 21.08C304.8 20.6267 304.666 20.2 304.666 19.8C304.666 19.3467 304.84 18.88 305.186 18.4C305.533 17.92 306.133 17.6133 306.986 17.48C307.546 17.4 308.306 17.28 309.266 17.12C310.226 16.9333 311.226 16.76 312.266 16.6C313.333 16.4133 314.306 16.2533 315.186 16.12C316.093 15.9867 316.773 15.92 317.226 15.92C320.586 15.92 322.266 17.8 322.266 21.56C322.266 22.28 321.893 23.1733 321.146 24.24C320.4 25.28 319.386 26.3733 318.106 27.52C316.853 28.64 315.44 29.6933 313.866 30.68C312.293 31.6667 310.68 32.4667 309.026 33.08C307.4 33.6933 305.84 34 304.346 34ZM333.729 35.36C332.076 35.36 330.742 34.7867 329.729 33.64C328.716 32.4667 328.209 30.5867 328.209 28C328.209 26.3467 328.396 24.6933 328.769 23.04C329.169 21.36 329.716 19.7733 330.409 18.28C331.129 16.76 331.956 15.4133 332.889 14.24C333.849 13.0667 334.902 12.1467 336.049 11.48C337.196 10.7867 338.382 10.44 339.609 10.44C341.689 10.44 343.316 11 344.489 12.12C345.662 13.24 346.249 14.6667 346.249 16.4C346.249 17.7333 345.876 18.9467 345.129 20.04C344.409 21.1067 343.422 22.0667 342.169 22.92C340.916 23.7733 339.516 24.5467 337.969 25.24C336.422 25.9333 334.836 26.56 333.209 27.12C333.076 28.08 333.009 28.9333 333.009 29.68C333.009 30.1333 333.262 30.36 333.769 30.36C334.969 30.36 336.249 30.1733 337.609 29.8C338.996 29.4 340.396 28.8933 341.809 28.28C343.222 27.64 344.582 26.9867 345.889 26.32C347.196 25.6267 348.382 24.9733 349.449 24.36C350.542 23.72 351.436 23.2133 352.129 22.84C352.849 22.44 353.316 22.24 353.529 22.24C354.116 22.24 354.542 22.4133 354.809 22.76C355.076 23.1067 355.209 23.48 355.209 23.88C355.209 24.0667 354.849 24.48 354.129 25.12C353.436 25.76 352.476 26.52 351.249 27.4C350.049 28.2533 348.689 29.1467 347.169 30.08C345.676 30.9867 344.116 31.8533 342.489 32.68C340.889 33.48 339.329 34.12 337.809 34.6C336.316 35.1067 334.956 35.36 333.729 35.36ZM333.889 23.56C334.982 22.92 336.062 22.2533 337.129 21.56C338.222 20.84 339.129 20.04 339.849 19.16C340.569 18.2533 340.929 17.2 340.929 16C340.929 15.6533 340.836 15.4267 340.649 15.32C340.462 15.1867 340.196 15.12 339.849 15.12C338.916 15.12 338.062 15.5333 337.289 16.36C336.542 17.1867 335.876 18.2533 335.289 19.56C334.729 20.84 334.262 22.1733 333.889 23.56ZM356.279 34C355.639 34 354.999 33.7867 354.359 33.36C353.745 32.9067 353.239 32.2667 352.839 31.44C352.439 30.5867 352.239 29.56 352.239 28.36C352.239 26.76 352.452 25.0533 352.879 23.24C353.332 21.4267 353.879 19.6133 354.519 17.8C355.159 15.9867 355.785 14.28 356.399 12.68C356.692 11.9067 357.052 11.3867 357.479 11.12C357.905 10.8267 358.465 10.68 359.159 10.68C360.732 10.68 361.519 11.4667 361.519 13.04C361.519 13.3067 361.399 13.8267 361.159 14.6C360.919 15.3467 360.599 16.2667 360.199 17.36C359.825 18.4533 359.425 19.64 358.999 20.92C358.599 22.1733 358.225 23.4533 357.879 24.76C357.559 26.04 357.305 27.2533 357.119 28.4C357.732 27.4667 358.412 26.3067 359.159 24.92C359.932 23.5067 360.745 22.0267 361.599 20.48C362.479 18.9333 363.359 17.4933 364.239 16.16C365.119 14.8 365.985 13.6933 366.839 12.84C367.692 11.9867 368.505 11.56 369.279 11.56C369.945 11.56 370.572 11.6933 371.159 11.96C371.772 12.2 372.305 12.68 372.759 13.4C373.212 14.0933 373.559 15.0933 373.799 16.4C374.065 17.7067 374.199 19.4267 374.199 21.56C374.199 22.6267 374.292 23.6667 374.479 24.68C374.692 25.6667 375.039 26.4933 375.519 27.16C375.999 27.8 376.679 28.12 377.559 28.12C379.079 28.12 380.439 27.84 381.639 27.28C382.839 26.72 383.892 26.0667 384.799 25.32C385.705 24.5733 386.465 23.92 387.079 23.36C387.452 22.9867 387.772 22.6933 388.039 22.48C388.332 22.2667 388.572 22.16 388.759 22.16C389.319 22.16 389.719 22.3067 389.959 22.6C390.225 22.8933 390.359 23.2933 390.359 23.8C390.359 24.0667 390.132 24.56 389.679 25.28C389.225 26 388.585 26.8267 387.759 27.76C386.959 28.6667 386.039 29.5467 384.999 30.4C383.959 31.2533 382.839 31.96 381.639 32.52C380.439 33.08 379.212 33.36 377.959 33.36C375.852 33.36 374.105 32.9867 372.719 32.24C371.359 31.4667 370.345 30.1867 369.679 28.4C369.012 26.5867 368.679 24.12 368.679 21C368.679 20.92 368.679 20.7867 368.679 20.6C368.679 19.7733 368.665 19.04 368.639 18.4C368.639 17.76 368.599 17.24 368.519 16.84C368.065 17.6667 367.519 18.6533 366.879 19.8C366.265 20.9467 365.599 22.1733 364.879 23.48C364.159 24.76 363.412 26.0267 362.639 27.28C361.865 28.5067 361.092 29.6267 360.319 30.64C359.572 31.6533 358.852 32.4667 358.159 33.08C357.465 33.6933 356.839 34 356.279 34ZM404.861 35C404.595 35 404.088 34.9867 403.341 34.96C402.595 34.9333 401.701 34.8933 400.661 34.84C399.621 34.7867 398.541 34.7333 397.421 34.68C396.328 34.6267 395.288 34.5867 394.301 34.56C393.315 34.5333 392.515 34.52 391.901 34.52C390.941 34.52 390.141 34.2267 389.501 33.64C388.888 33.0267 388.581 32.1733 388.581 31.08C388.581 30.44 388.928 29.6 389.621 28.56C390.341 27.4933 391.275 26.32 392.421 25.04C393.568 23.7333 394.808 22.4133 396.141 21.08C397.501 19.7467 398.848 18.4933 400.181 17.32C401.541 16.12 402.741 15.0933 403.781 14.24C402.021 14.48 400.328 14.76 398.701 15.08C397.075 15.4 395.661 15.68 394.461 15.92C393.288 16.16 392.488 16.28 392.061 16.28C391.288 16.28 390.675 16.0667 390.221 15.64C389.768 15.1867 389.541 14.5867 389.541 13.84C389.541 13.52 389.875 13.1867 390.541 12.84C391.208 12.4667 392.115 12.12 393.261 11.8C394.408 11.48 395.701 11.1867 397.141 10.92C398.608 10.6533 400.128 10.4533 401.701 10.32C403.301 10.16 404.875 10.08 406.421 10.08C407.168 10.08 407.795 10.2667 408.301 10.64C408.835 10.9867 409.235 11.44 409.501 12C409.795 12.5333 409.941 13.08 409.941 13.64C409.941 13.8533 409.648 14.2933 409.061 14.96C408.475 15.6267 407.701 16.4533 406.741 17.44C405.781 18.4 404.715 19.4533 403.541 20.6C402.368 21.72 401.195 22.8667 400.021 24.04C398.875 25.1867 397.808 26.28 396.821 27.32C395.835 28.36 395.035 29.2667 394.421 30.04C395.461 30.0133 396.635 29.9733 397.941 29.92C399.248 29.8667 400.515 29.8133 401.741 29.76C402.968 29.7067 404.035 29.6667 404.941 29.64C405.848 29.6133 406.421 29.6 406.661 29.6C407.515 29.6 408.128 29.8 408.501 30.2C408.875 30.6 409.061 31.0667 409.061 31.6C409.061 32.4 408.675 33.1733 407.901 33.92C407.155 34.64 406.141 35 404.861 35Z" fill="black"/>
</svg>
